<svg width="1268" height="652" xmlns="http://www.w3.org/2000/svg" xmlns:xlink="http://www.w3.org/1999/xlink" overflow="hidden"><defs><linearGradient x1="47.5324" y1="452.786" x2="60.7811" y2="494.045" gradientUnits="userSpaceOnUse" spreadMethod="reflect" id="fill0"><stop offset="0" stop-color="#2E75B6"/><stop offset="0.49" stop-color="#2E75B6"/><stop offset="0.53" stop-color="#FFFFFF"/><stop offset="1" stop-color="#FFFFFF"/></linearGradient><linearGradient x1="47.5324" y1="452.786" x2="60.7811" y2="494.045" gradientUnits="userSpaceOnUse" spreadMethod="reflect" id="fill1"><stop offset="0" stop-color="#2E75B6"/><stop offset="0.49" stop-color="#2E75B6"/><stop offset="0.53" stop-color="#FFFFFF"/><stop offset="1" stop-color="#FFFFFF"/></linearGradient></defs><g transform="translate(-7 -24)"><path d="M9.50005 97.3002C9.50005 84.1558 20.1557 73.5001 33.3002 73.5001L669.7 73.5001C682.844 73.5001 693.5 84.1558 693.5 97.3002L693.5 316.7C693.5 329.844 682.844 340.5 669.7 340.5L33.3002 340.5C20.1557 340.5 9.50005 329.844 9.50005 316.7Z" stroke="#FFFFFF" stroke-width="1.33333" stroke-miterlimit="8" fill="#F4B183" fill-rule="evenodd" fill-opacity="0.4"/><path d="M1057.5 241.832C1057.5 221.767 1073.77 205.5 1093.83 205.5L1238.17 205.5C1258.23 205.5 1274.5 221.767 1274.5 241.832L1274.5 427.168C1274.5 447.234 1258.23 463.5 1238.17 463.5L1093.83 463.5C1073.77 463.5 1057.5 447.234 1057.5 427.168Z" stroke="#FFFFFF" stroke-width="1.33333" stroke-miterlimit="8" fill="#A9D18E" fill-rule="evenodd" fill-opacity="0.2"/><path d="M708.5 226.936C708.5 211.231 721.231 198.5 736.936 198.5L1019.06 198.5C1034.77 198.5 1047.5 211.231 1047.5 226.936L1047.5 489.064C1047.5 504.769 1034.77 517.5 1019.06 517.5L736.936 517.5C721.231 517.5 708.5 504.769 708.5 489.064Z" stroke="#FFFFFF" stroke-width="1.33333" stroke-miterlimit="8" fill="#3B3838" fill-rule="evenodd" fill-opacity="0.4"/><path d="M9.50005 391.409C9.50005 378.757 19.7569 368.5 32.4093 368.5L670.591 368.5C683.243 368.5 693.5 378.757 693.5 391.409L693.5 602.591C693.5 615.243 683.243 625.5 670.591 625.5L32.4093 625.5C19.7569 625.5 9.50005 615.243 9.50005 602.591Z" stroke="#FFFFFF" stroke-width="1.33333" stroke-miterlimit="8" fill="#8FAADC" fill-rule="evenodd" fill-opacity="0.4"/><text font-family="Arial,Arial_MSFontService,sans-serif" font-weight="400" font-size="16" transform="translate(186.01 128)">Genomics</text><text font-family="Arial,Arial_MSFontService,sans-serif" font-weight="400" font-size="16" transform="translate(180.418 178)">Epigenomics</text><text font-family="Arial,Arial_MSFontService,sans-serif" font-weight="400" font-size="16" transform="translate(169.486 234)">Transcriptomics</text><text font-family="Arial,Arial_MSFontService,sans-serif" font-weight="400" font-size="16" transform="translate(190.184 282)">Pathways</text><path d="M40.667 466.147C38.8735 460.561 41.9473 454.58 47.5324 452.786L47.5324 452.786C53.1176 450.993 59.0991 454.067 60.8926 459.652L67.6465 480.685C69.44 486.27 66.3662 492.251 60.7811 494.045L60.7811 494.045C55.1959 495.838 49.2144 492.765 47.4209 487.179Z" stroke="#172C51" stroke-width="1.33333" stroke-miterlimit="8" fill="url(#fill0)" fill-rule="evenodd"/><path d="M44.0439 476.663 64.2696 470.168" stroke="#000000" stroke-miterlimit="8" fill="url(#fill1)" fill-rule="evenodd"/><path d="M63.3893 219.245C64.2125 218.721 68.1916 220.097 69.5637 219.638 70.9359 219.179 70.1812 217.016 71.6219 216.492 73.0626 215.967 76.1499 216.819 78.208 216.492 80.2662 216.164 82.1185 214.263 83.9709 214.525 85.8232 214.787 87.95 217.213 89.3221 218.065 90.6942 218.917 91.7233 218.589 92.2035 219.638 92.6837 220.687 91.243 223.179 92.2035 224.359 93.164 225.539 97.0059 225.473 97.9664 226.719 98.9268 227.964 98.378 230.456 97.9664 231.832 97.5547 233.209 95.6338 233.34 95.4966 234.979 95.3593 236.618 97.3489 240.093 97.1431 241.666 96.9373 243.24 95.4966 243.174 94.2617 244.42 93.0268 245.665 91.5175 248.615 89.7337 249.14 87.95 249.664 85.7546 247.173 83.5592 247.566 81.3638 247.96 78.894 251.5 76.5615 251.5 74.2289 251.5 71.6219 248.812 69.5637 247.566 67.5056 246.321 65.2416 245.469 64.2125 244.026 63.1834 242.584 63.9381 240.289 63.3893 238.913 62.8404 237.536 61.1253 236.749 60.9195 235.766 60.7136 234.783 62.2229 234.455 62.1544 233.012 62.0858 231.57 60.3706 228.358 60.5078 227.112 60.6451 225.866 62.2916 226.26 62.9776 225.539 63.6637 224.818 64.4183 223.769 64.6242 222.785 64.83 221.802 62.566 219.77 63.3893 219.245Z" stroke="#172C51" stroke-width="1.33333" stroke-miterlimit="8" fill="#F8CBAD" fill-rule="evenodd"/><path d="M76.5001 232.5C76.5001 229.186 79.4102 226.5 83.0001 226.5 86.5899 226.5 89.5001 229.186 89.5001 232.5 89.5001 235.814 86.5899 238.5 83.0001 238.5 79.4102 238.5 76.5001 235.814 76.5001 232.5Z" stroke="#172C51" stroke-width="1.33333" stroke-miterlimit="8" fill="#D1810B" fill-rule="evenodd"/><path d="M53.2231 220.029C52.2945 220.332 48.8267 217.965 47.3874 218.062 45.948 218.16 46.1095 220.472 44.5871 220.617 43.0646 220.762 40.3178 219.136 38.2528 218.93 36.1879 218.724 33.9104 220.111 32.1973 219.38 30.4843 218.648 29.0716 215.728 27.9743 214.542 26.877 213.356 25.8018 213.413 25.6135 212.263 25.4253 211.112 27.4608 209.042 26.8449 207.64 26.2289 206.238 22.5169 205.318 21.9181 203.852 21.3192 202.386 22.497 200.087 23.252 198.844 24.007 197.602 25.8887 197.965 26.4482 196.395 27.0078 194.825 26.0007 190.913 26.6091 189.425 27.2174 187.937 28.586 188.37 30.0986 187.466 31.6111 186.563 33.8323 184.06 35.6846 184.004 37.537 183.947 38.9985 186.949 41.2125 187.126 43.4266 187.303 46.7254 184.469 48.9687 185.067 51.2121 185.664 53.0182 188.965 54.6727 190.712 56.3272 192.459 58.2823 193.873 58.8958 195.549 59.5093 197.226 58.1849 199.279 58.3536 200.768 58.5224 202.257 59.9666 203.467 59.9081 204.483 59.8495 205.499 58.3124 205.433 58.0021 206.863 57.6919 208.293 58.5034 211.878 58.0465 213.063 57.5896 214.248 56.1087 213.441 55.2607 213.971 54.4128 214.502 53.4134 215.336 52.9589 216.246 52.5045 217.156 54.1517 219.727 53.2231 220.029Z" stroke="#172C51" stroke-width="1.33333" stroke-miterlimit="8" fill="#F8CBAD" fill-rule="evenodd"/><path d="M44.1428 203.184C43.2981 206.356 39.866 208.194 36.4771 207.292 33.0881 206.389 31.0255 203.087 31.8702 199.915 32.7149 196.744 36.147 194.905 39.536 195.808 42.9249 196.711 44.9875 200.013 44.1428 203.184Z" stroke="#172C51" stroke-width="1.33333" stroke-miterlimit="8" fill="#D1810B" fill-rule="evenodd"/><path d="M36.3893 216.245C37.2125 215.721 41.1916 217.097 42.5637 216.638 43.9359 216.179 43.1812 214.016 44.6219 213.492 46.0626 212.967 49.1499 213.819 51.208 213.492 53.2662 213.164 55.1185 211.263 56.9709 211.525 58.8232 211.787 60.95 214.213 62.3221 215.065 63.6942 215.917 64.7233 215.589 65.2035 216.638 65.6837 217.687 64.243 220.179 65.2035 221.359 66.164 222.539 70.0059 222.473 70.9664 223.719 71.9268 224.964 71.378 227.456 70.9664 228.832 70.5547 230.209 68.6338 230.34 68.4966 231.979 68.3593 233.618 70.3489 237.093 70.1431 238.666 69.9373 240.24 68.4966 240.174 67.2617 241.42 66.0268 242.665 64.5175 245.615 62.7337 246.14 60.95 246.664 58.7546 244.173 56.5592 244.566 54.3638 244.96 51.894 248.5 49.5615 248.5 47.2289 248.5 44.6219 245.812 42.5637 244.566 40.5056 243.321 38.2416 242.469 37.2125 241.026 36.1834 239.584 36.9381 237.289 36.3893 235.913 35.8404 234.536 34.1253 233.749 33.9195 232.766 33.7136 231.783 35.2229 231.455 35.1544 230.012 35.0858 228.57 33.3706 225.358 33.5078 224.112 33.6451 222.866 35.2916 223.26 35.9776 222.539 36.6637 221.818 37.4183 220.769 37.6242 219.785 37.83 218.802 35.566 216.77 36.3893 216.245Z" stroke="#172C51" stroke-width="1.33333" stroke-miterlimit="8" fill="#F8CBAD" fill-rule="evenodd"/><path d="M49.5001 230.5C49.5001 227.186 52.4102 224.5 56.0001 224.5 59.5899 224.5 62.5001 227.186 62.5001 230.5 62.5001 233.814 59.5899 236.5 56.0001 236.5 52.4102 236.5 49.5001 233.814 49.5001 230.5Z" stroke="#172C51" stroke-width="1.33333" stroke-miterlimit="8" fill="#D1810B" fill-rule="evenodd"/><path d="M78.6108 221.755C77.7876 222.28 73.8085 220.903 72.4364 221.362 71.0642 221.821 71.8189 223.984 70.3782 224.509 68.9375 225.033 65.8503 224.181 63.7921 224.509 61.7339 224.836 59.8816 226.738 58.0292 226.475 56.1769 226.213 54.0502 223.787 52.678 222.935 51.3059 222.083 50.2768 222.411 49.7966 221.362 49.3164 220.313 50.7571 217.822 49.7966 216.641 48.8361 215.461 44.9942 215.527 44.0337 214.281 43.0733 213.036 43.6221 210.544 44.0337 209.168 44.4454 207.791 46.3663 207.66 46.5035 206.021 46.6408 204.382 44.6512 200.907 44.857 199.334 45.0628 197.76 46.5035 197.826 47.7384 196.58 48.9733 195.335 50.4826 192.385 52.2664 191.86 54.0502 191.336 56.2455 193.827 58.4409 193.434 60.6363 193.04 63.1061 189.5 65.4386 189.5 67.7712 189.5 70.3782 192.188 72.4364 193.434 74.4945 194.679 76.7585 195.531 77.7876 196.974 78.8167 198.416 78.062 200.711 78.6108 202.087 79.1597 203.464 80.8748 204.251 81.0806 205.234 81.2865 206.218 79.7772 206.545 79.8457 207.988 79.9143 209.43 81.6295 212.642 81.4923 213.888 81.355 215.134 79.7085 214.74 79.0225 215.461 78.3364 216.183 77.5818 217.232 77.376 218.215 77.1701 219.198 79.4341 221.231 78.6108 221.755Z" stroke="#172C51" stroke-width="1.33333" stroke-miterlimit="8" fill="#F8CBAD" fill-rule="evenodd"/><path d="M65.5001 208C65.5001 211.038 62.8138 213.5 59.5001 213.5 56.1863 213.5 53.5001 211.038 53.5001 208 53.5001 204.962 56.1863 202.5 59.5001 202.5 62.8138 202.5 65.5001 204.962 65.5001 208Z" stroke="#172C51" stroke-width="1.33333" stroke-miterlimit="8" fill="#D1810B" fill-rule="evenodd"/><path d="M62.4112 204.123C62.7511 203.207 66.761 201.962 67.5788 200.773 68.3966 199.585 66.4849 198.274 67.3178 196.992 68.1506 195.709 71.1312 194.567 72.5761 193.078 74.0209 191.588 74.3493 188.942 75.9869 188.054 77.6245 187.166 80.7903 187.875 82.4016 187.752 84.0128 187.629 84.636 186.751 85.6542 187.319 86.6723 187.886 87.0297 190.768 88.5106 191.156 89.9916 191.545 93.0192 189.208 94.5398 189.65 96.0604 190.092 97.1298 192.444 97.6343 193.808 98.1387 195.171 96.6844 196.42 97.5667 197.834 98.4489 199.248 102.14 200.89 102.928 202.292 103.716 203.693 102.526 204.496 102.294 206.242 102.061 207.989 102.642 211.284 101.535 212.771 100.428 214.257 97.1679 213.536 95.6532 215.161 94.1384 216.785 94.3089 221.131 92.4466 222.517 90.5843 223.904 86.8763 223.268 84.4793 223.478 82.0823 223.689 79.759 224.341 78.0646 223.78 76.3702 223.219 75.5842 220.905 74.3129 220.112 73.0416 219.319 71.1962 219.699 70.4368 219.022 69.6773 218.345 70.684 217.181 69.7564 216.049 68.8289 214.917 65.5155 213.325 64.8714 212.231 64.2271 211.137 65.7798 210.478 65.8911 209.484 66.0024 208.49 65.9702 207.189 65.5394 206.267 65.1086 205.345 62.0713 205.038 62.4112 204.123Z" stroke="#172C51" stroke-width="1.33333" stroke-miterlimit="8" fill="#F8CBAD" fill-rule="evenodd"/><path d="M81.2514 207.477C79.2919 204.845 79.9841 201.013 82.7974 198.919 85.6107 196.825 89.4799 197.261 91.4394 199.894 93.3989 202.526 92.7067 206.358 89.8934 208.452 87.0801 210.546 83.2109 210.11 81.2514 207.477Z" stroke="#172C51" stroke-width="1.33333" stroke-miterlimit="8" fill="#D1810B" fill-rule="evenodd"/><path d="M73.1758 197.439C74.0971 197.731 75.3389 201.651 76.5335 202.404 77.7281 203.157 79.0541 201.194 80.3435 201.957 81.6328 202.721 82.7735 205.624 84.2694 206.985 85.7654 208.345 88.4302 208.54 89.3191 210.122 90.208 211.704 89.4845 214.883 89.6029 216.476 89.7212 218.07 90.6037 218.645 90.0289 219.684 89.4541 220.723 86.5503 221.221 86.1542 222.71 85.7581 224.2 88.102 227.09 87.652 228.622 87.2021 230.154 84.8299 231.332 83.4544 231.9 82.0789 232.469 80.8262 231.087 79.3991 232.032 77.9719 232.978 76.3056 236.724 74.8914 237.576 73.4771 238.428 72.6721 237.286 70.9135 237.142 69.1549 236.998 65.8336 237.737 64.3397 236.712 62.8459 235.686 63.5823 232.414 61.9507 230.99 60.3192 229.566 55.9409 229.951 54.5505 228.17 53.16 226.39 53.8125 222.677 53.6081 220.307 53.4037 217.938 52.7538 215.663 53.3243 213.953 53.8948 212.243 56.2282 211.348 57.0311 210.047 57.8341 208.745 57.4575 206.932 58.1421 206.144 58.8266 205.357 59.9954 206.299 61.1384 205.322 62.2815 204.345 63.896 200.976 65.0003 200.283 66.1046 199.589 66.7632 201.098 67.7641 201.159 68.7651 201.22 70.0759 201.124 71.0059 200.651 71.9358 200.177 72.2545 197.146 73.1758 197.439Z" stroke="#172C51" stroke-width="1.33333" stroke-miterlimit="8" fill="#F8CBAD" fill-rule="evenodd"/><path d="M69.7366 216.311C72.3947 214.235 76.2523 214.732 78.3527 217.422 80.4532 220.112 80.0012 223.975 77.3432 226.051 74.6851 228.127 70.8275 227.629 68.727 224.939 66.6266 222.25 67.0786 218.387 69.7366 216.311Z" stroke="#172C51" stroke-width="1.33333" stroke-miterlimit="8" fill="#D1810B" fill-rule="evenodd"/><path d="M71.3482 199.76C70.4196 200.062 66.9519 197.695 65.5125 197.793 64.0732 197.89 64.2346 200.202 62.7122 200.347 61.1898 200.492 58.4429 198.866 56.378 198.66 54.313 198.454 52.0356 199.841 50.3225 199.11 48.6094 198.378 47.1968 195.458 46.0994 194.272 45.0021 193.086 43.9269 193.143 43.7387 191.993 43.5504 190.842 45.5859 188.772 44.97 187.37 44.3541 185.968 40.6421 185.048 40.0432 183.582 39.4444 182.116 40.6221 179.817 41.3772 178.574 42.1322 177.332 44.0139 177.695 44.5734 176.125 45.1329 174.555 44.1258 170.643 44.7342 169.155 45.3426 167.667 46.7111 168.1 48.2237 167.196 49.7363 166.293 51.9574 163.79 53.8098 163.734 55.6621 163.677 57.1236 166.679 59.3377 166.856 61.5517 167.034 64.8505 164.199 67.0939 164.797 69.3372 165.394 71.1434 168.695 72.7979 170.442 74.4524 172.189 76.4074 173.603 77.0209 175.28 77.6344 176.956 76.31 179.009 76.4788 180.498 76.6475 181.987 78.0918 183.197 78.0332 184.213 77.9746 185.229 76.4375 185.163 76.1273 186.593 75.817 188.023 76.6286 191.609 76.1717 192.793 75.7148 193.978 74.2338 193.171 73.3859 193.701 72.538 194.232 71.5385 195.066 71.0841 195.976 70.6296 196.886 72.2768 199.457 71.3482 199.76Z" stroke="#172C51" stroke-width="1.33333" stroke-miterlimit="8" fill="#F8CBAD" fill-rule="evenodd"/><path d="M62.2679 182.914C61.4232 186.086 57.9912 187.925 54.6022 187.022 51.2132 186.119 49.1507 182.817 49.9954 179.645 50.8401 176.474 54.2721 174.635 57.6611 175.538 61.0501 176.441 63.1126 179.743 62.2679 182.914Z" stroke="#172C51" stroke-width="1.33333" stroke-miterlimit="8" fill="#D1810B" fill-rule="evenodd"/><text font-family="Arial,Arial_MSFontService,sans-serif" font-weight="400" font-size="24" transform="translate(27.8173 280)">Cancer</text><text font-family="Arial,Arial_MSFontService,sans-serif" font-weight="400" font-size="24" transform="translate(38.386 521)">Drug</text><path d="M147 316C140.373 316 135 309.877 135 302.324L135 229.676C135 222.123 129.627 216 123 216 129.627 216 135 209.877 135 202.324L135 129.676C135 122.123 140.373 116 147 116" stroke="#000000" stroke-width="2" stroke-miterlimit="8" fill="none" fill-rule="evenodd"/><path d="M147 594C140.373 594 135 587.877 135 580.324L135 507.176C135 499.623 129.627 493.5 123 493.5 129.627 493.5 135 487.377 135 479.824L135 406.676C135 399.123 140.373 393 147 393" stroke="#000000" stroke-width="2" stroke-miterlimit="8" fill="none" fill-rule="evenodd"/><text font-family="Arial,Arial_MSFontService,sans-serif" font-weight="400" font-size="16" transform="translate(200.814 419)">ECFP</text><text font-family="Arial,Arial_MSFontService,sans-serif" font-weight="400" font-size="16" transform="translate(201.682 481)">ESPF</text><text font-family="Arial,Arial_MSFontService,sans-serif" font-weight="400" font-size="16" transform="translate(200.161 548)">PSFP</text><path d="M349.159 220.46 313.831 255.686 313.882 237.735 330.395 221.27 313.976 204.804 314.032 185.23Z" stroke="#000000" stroke-width="1.33333" stroke-miterlimit="8" fill="#CB700B" fill-rule="evenodd" fill-opacity="0.6"/><rect x="181.5" y="130.5" width="17" height="17" stroke="#172C51" stroke-width="1.33333" stroke-miterlimit="8" fill="#B4C7E7"/><rect x="197.5" y="130.5" width="17" height="17" stroke="#172C51" stroke-width="1.33333" stroke-miterlimit="8" fill="#4472C4"/><rect x="213.5" y="130.5" width="17" height="17" stroke="#172C51" stroke-width="1.33333" stroke-miterlimit="8" fill="#DAE3F3"/><rect x="229.5" y="130.5" width="17" height="17" stroke="#172C51" stroke-width="1.33333" stroke-miterlimit="8" fill="#203864"/><rect x="246.5" y="130.5" width="17" height="17" stroke="#172C51" stroke-width="1.33333" stroke-miterlimit="8" fill="#8FAADC"/><rect x="180.5" y="182.5" width="16" height="16" stroke="#172C51" stroke-width="1.33333" stroke-miterlimit="8" fill="#C9C9C9"/><rect x="197.5" y="182.5" width="17" height="16" stroke="#172C51" stroke-width="1.33333" stroke-miterlimit="8" fill="#767171"/><rect x="213.5" y="182.5" width="17" height="16" stroke="#172C51" stroke-width="1.33333" stroke-miterlimit="8" fill="#3B3838" fill-opacity="0.4"/><rect x="229.5" y="182.5" width="17" height="16" stroke="#172C51" stroke-width="1.33333" stroke-miterlimit="8" fill="#181717" fill-opacity="0.701961"/><rect x="246.5" y="182.5" width="17" height="16" stroke="#172C51" stroke-width="1.33333" stroke-miterlimit="8" fill="#181717" fill-opacity="0.4"/><rect x="181.5" y="237.5" width="16" height="17" stroke="#172C51" stroke-width="1.33333" stroke-miterlimit="8" fill="#548235"/><rect x="197.5" y="237.5" width="17" height="17" stroke="#172C51" stroke-width="1.33333" stroke-miterlimit="8" fill="#E2F0D9"/><rect x="213.5" y="237.5" width="17" height="17" stroke="#172C51" stroke-width="1.33333" stroke-miterlimit="8" fill="#C5E0B4"/><rect x="229.5" y="237.5" width="17" height="17" stroke="#172C51" stroke-width="1.33333" stroke-miterlimit="8" fill="#E2F0D9"/><rect x="246.5" y="237.5" width="17" height="17" stroke="#172C51" stroke-width="1.33333" stroke-miterlimit="8" fill="#A9D18E"/><rect x="181.5" y="287.5" width="16" height="17" stroke="#172C51" stroke-width="1.33333" stroke-miterlimit="8" fill="#F4B183"/><rect x="197.5" y="287.5" width="17" height="17" stroke="#172C51" stroke-width="1.33333" stroke-miterlimit="8" fill="#FBE5D6"/><rect x="213.5" y="287.5" width="17" height="17" stroke="#172C51" stroke-width="1.33333" stroke-miterlimit="8" fill="#C55A11"/><rect x="229.5" y="287.5" width="17" height="17" stroke="#172C51" stroke-width="1.33333" stroke-miterlimit="8" fill="#F4B183"/><rect x="246.5" y="287.5" width="17" height="17" stroke="#172C51" stroke-width="1.33333" stroke-miterlimit="8" fill="#843C0C" fill-opacity="0.701961"/><rect x="181.5" y="424.5" width="17" height="16" stroke="#002060" stroke-width="1.33333" stroke-miterlimit="8" fill="#002060" fill-opacity="0.4"/><rect x="198.5" y="424.5" width="16" height="16" stroke="#002060" stroke-width="1.33333" stroke-miterlimit="8" fill="#002060" fill-opacity="0.901961"/><rect x="214.5" y="424.5" width="16" height="16" stroke="#002060" stroke-width="1.33333" stroke-miterlimit="8" fill="#002060" fill-opacity="0.6"/><rect x="230.5" y="424.5" width="17" height="16" stroke="#002060" stroke-width="1.33333" stroke-miterlimit="8" fill="#002060" fill-opacity="0.8"/><rect x="247.5" y="424.5" width="16" height="16" stroke="#002060" stroke-width="1.33333" stroke-miterlimit="8" fill="#002060" fill-opacity="0.2"/><rect x="181.5" y="484.5" width="17" height="17" stroke="#172C51" stroke-width="1.33333" stroke-miterlimit="8" fill="#7030A0" fill-opacity="0.4"/><rect x="198.5" y="484.5" width="16" height="17" stroke="#172C51" stroke-width="1.33333" stroke-miterlimit="8" fill="#7030A0" fill-opacity="0.2"/><rect x="214.5" y="484.5" width="16" height="17" stroke="#172C51" stroke-width="1.33333" stroke-miterlimit="8" fill="#7030A0" fill-opacity="0.8"/><rect x="230.5" y="484.5" width="17" height="17" stroke="#172C51" stroke-width="1.33333" stroke-miterlimit="8" fill="#7030A0"/><rect x="247.5" y="484.5" width="16" height="17" stroke="#172C51" stroke-width="1.33333" stroke-miterlimit="8" fill="#7030A0" fill-opacity="0.6"/><rect x="181.5" y="552.5" width="16" height="16" stroke="#172C51" stroke-width="1.33333" stroke-miterlimit="8" fill="#7F6000" fill-opacity="0.2"/><rect x="198.5" y="552.5" width="16" height="16" stroke="#172C51" stroke-width="1.33333" stroke-miterlimit="8" fill="#BF9000"/><rect x="214.5" y="552.5" width="16" height="16" stroke="#172C51" stroke-width="1.33333" stroke-miterlimit="8" fill="#7F6000" fill-opacity="0.4"/><rect x="230.5" y="552.5" width="17" height="16" stroke="#172C51" stroke-width="1.33333" stroke-miterlimit="8" fill="#7F6000"/><rect x="247.5" y="552.5" width="16" height="16" stroke="#172C51" stroke-width="1.33333" stroke-miterlimit="8" fill="#7F6000" fill-opacity="0.6"/><path d="M263.545 139.17 266.924 139.626 270.306 140.966 273.617 143.116 276.835 146.013 279.938 149.597 282.903 153.81 285.707 158.595 288.324 163.896 290.731 169.655 292.903 175.819 296.428 189.112 298.697 203.324 299.295 210.639 299.5 218.008 299.303 225.376 298.727 232.69 296.543 246.902 293.15 260.193 291.06 266.357 288.743 272.116 286.223 277.416 283.524 282.201 280.67 286.414 277.683 289.998 274.573 292.907 271.309 294.678 270.991 294.092 274.218 292.341 274.149 292.391 277.212 289.525 277.184 289.556 280.147 286 280.127 286.026 282.965 281.839 282.95 281.862 285.637 277.099 285.626 277.119 288.137 271.839 288.128 271.858 290.438 266.117 290.431 266.134 292.514 259.991 292.507 260.016 295.893 246.753 295.887 246.784 298.066 232.601 298.063 232.625 298.637 225.332 298.637 225.349 298.833 217.999 298.834 218.017 298.629 210.667 298.63 210.685 298.033 203.392 298.036 203.417 295.772 189.233 295.779 189.266 292.262 176.003 292.269 176.028 290.105 169.885 290.112 169.903 287.713 164.162 287.722 164.181 285.114 158.901 285.125 158.922 282.335 154.159 282.35 154.182 279.402 149.994 279.423 150.02 276.344 146.465 276.373 146.495 273.191 143.629 273.232 143.661 269.971 141.543 270.03 141.573 266.717 140.26 266.795 140.281 263.456 139.83ZM273.692 297.749 264.833 296.516 271.135 290.168Z"/><path d="M367.5 166.5C367.5 161.529 371.53 157.5 376.5 157.5 381.471 157.5 385.5 161.529 385.5 166.5 385.5 171.471 381.471 175.5 376.5 175.5 371.53 175.5 367.5 171.471 367.5 166.5Z" stroke="#000000" stroke-width="1.33333" stroke-miterlimit="8" fill="#F8CBAD" fill-rule="evenodd"/><path d="M426.5 176C426.5 171.306 430.306 167.5 435 167.5 439.694 167.5 443.5 171.306 443.5 176 443.5 180.694 439.694 184.5 435 184.5 430.306 184.5 426.5 180.694 426.5 176Z" stroke="#000000" stroke-width="1.33333" stroke-miterlimit="8" fill="#F8CBAD" fill-rule="evenodd"/><path d="M483.5 192C483.5 187.306 487.53 183.5 492.5 183.5 497.471 183.5 501.5 187.306 501.5 192 501.5 196.694 497.471 200.5 492.5 200.5 487.53 200.5 483.5 196.694 483.5 192Z" stroke="#000000" stroke-width="1.33333" stroke-miterlimit="8" fill="#F8CBAD" fill-rule="evenodd"/><path d="M443.5 176.5 483.677 192.333" stroke="#000000" stroke-miterlimit="8" fill="#F8CBAD" fill-rule="evenodd"/><path d="M385.5 166.5 426.122 176.17" stroke="#000000" stroke-miterlimit="8" fill="#F8CBAD" fill-rule="evenodd"/><path d="M367.5 192C367.5 187.306 371.53 183.5 376.5 183.5 381.471 183.5 385.5 187.306 385.5 192 385.5 196.694 381.471 200.5 376.5 200.5 371.53 200.5 367.5 196.694 367.5 192Z" stroke="#000000" stroke-width="1.33333" stroke-miterlimit="8" fill="#F8CBAD" fill-rule="evenodd"/><path d="M0 0 40.6219 15.9271" stroke="#000000" stroke-miterlimit="8" fill="#F8CBAD" fill-rule="evenodd" transform="matrix(1 0 0 -1 385.5 192.427)"/><path d="M367.5 218C367.5 213.306 371.53 209.5 376.5 209.5 381.471 209.5 385.5 213.306 385.5 218 385.5 222.694 381.471 226.5 376.5 226.5 371.53 226.5 367.5 222.694 367.5 218Z" stroke="#000000" stroke-width="1.33333" stroke-miterlimit="8" fill="#F8CBAD" fill-rule="evenodd"/><path d="M367.5 243.5C367.5 238.529 371.53 234.5 376.5 234.5 381.471 234.5 385.5 238.529 385.5 243.5 385.5 248.471 381.471 252.5 376.5 252.5 371.53 252.5 367.5 248.471 367.5 243.5Z" stroke="#000000" stroke-width="1.33333" stroke-miterlimit="8" fill="#F8CBAD" fill-rule="evenodd"/><path d="M367.5 268.5C367.5 263.53 371.53 259.5 376.5 259.5 381.471 259.5 385.5 263.53 385.5 268.5 385.5 273.471 381.471 277.5 376.5 277.5 371.53 277.5 367.5 273.471 367.5 268.5Z" stroke="#000000" stroke-width="1.33333" stroke-miterlimit="8" fill="#F8CBAD" fill-rule="evenodd"/><path d="M425.5 204.5C425.5 199.529 429.53 195.5 434.5 195.5 439.471 195.5 443.5 199.529 443.5 204.5 443.5 209.471 439.471 213.5 434.5 213.5 429.53 213.5 425.5 209.471 425.5 204.5Z" stroke="#000000" stroke-width="1.33333" stroke-miterlimit="8" fill="#F8CBAD" fill-rule="evenodd"/><path d="M425.5 231.5C425.5 226.529 429.53 222.5 434.5 222.5 439.471 222.5 443.5 226.529 443.5 231.5 443.5 236.471 439.471 240.5 434.5 240.5 429.53 240.5 425.5 236.471 425.5 231.5Z" stroke="#000000" stroke-width="1.33333" stroke-miterlimit="8" fill="#F8CBAD" fill-rule="evenodd"/><path d="M425.5 259.5C425.5 254.529 429.53 250.5 434.5 250.5 439.471 250.5 443.5 254.529 443.5 259.5 443.5 264.471 439.471 268.5 434.5 268.5 429.53 268.5 425.5 264.471 425.5 259.5Z" stroke="#000000" stroke-width="1.33333" stroke-miterlimit="8" fill="#F8CBAD" fill-rule="evenodd"/><path d="M483.5 222C483.5 217.306 487.53 213.5 492.5 213.5 497.471 213.5 501.5 217.306 501.5 222 501.5 226.694 497.471 230.5 492.5 230.5 487.53 230.5 483.5 226.694 483.5 222Z" stroke="#000000" stroke-width="1.33333" stroke-miterlimit="8" fill="#F8CBAD" fill-rule="evenodd"/><path d="M483.5 251.5C483.5 246.529 487.53 242.5 492.5 242.5 497.471 242.5 501.5 246.529 501.5 251.5 501.5 256.471 497.471 260.5 492.5 260.5 487.53 260.5 483.5 256.471 483.5 251.5Z" stroke="#000000" stroke-width="1.33333" stroke-miterlimit="8" fill="#F8CBAD" fill-rule="evenodd"/><path d="M0 0 40.6219 41.6449" stroke="#000000" stroke-miterlimit="8" fill="#F8CBAD" fill-rule="evenodd" transform="matrix(1 0 0 -1 385.5 218.145)"/><path d="M0 0 40.622 67.2425" stroke="#000000" stroke-miterlimit="8" fill="#F8CBAD" fill-rule="evenodd" transform="matrix(1 0 0 -1 385.5 243.743)"/><path d="M0 0 40.622 92.56" stroke="#000000" stroke-miterlimit="8" fill="#F8CBAD" fill-rule="evenodd" transform="matrix(1 0 0 -1 385.5 269.06)"/><path d="M0 0 40.3705 10.9685" stroke="#000000" stroke-miterlimit="8" fill="#F8CBAD" fill-rule="evenodd" transform="matrix(1 0 0 -1 385.5 270.469)"/><path d="M385.5 243.5 425.871 259.843" stroke="#000000" stroke-miterlimit="8" fill="#F8CBAD" fill-rule="evenodd"/><path d="M385.5 217.5 425.871 259.441" stroke="#000000" stroke-miterlimit="8" fill="#F8CBAD" fill-rule="evenodd"/><path d="M385.5 192.5 425.871 260.159" stroke="#000000" stroke-miterlimit="8" fill="#F8CBAD" fill-rule="evenodd"/><path d="M385.5 166.5 425.871 259.756" stroke="#000000" stroke-miterlimit="8" fill="#F8CBAD" fill-rule="evenodd"/><path d="M385.5 166.5 425.906 204.315" stroke="#000000" stroke-miterlimit="8" fill="#F8CBAD" fill-rule="evenodd"/><path d="M385.5 192.5 425.906 204.717" stroke="#000000" stroke-miterlimit="8" fill="#F8CBAD" fill-rule="evenodd"/><path d="M0 0 40.4063 13.5008" stroke="#000000" stroke-miterlimit="8" fill="#F8CBAD" fill-rule="evenodd" transform="matrix(1 0 0 -1 385.5 218.001)"/><path d="M0 0 40.4064 39.0984" stroke="#000000" stroke-miterlimit="8" fill="#F8CBAD" fill-rule="evenodd" transform="matrix(1 0 0 -1 385.5 243.598)"/><path d="M0 0 40.4064 64.4159" stroke="#000000" stroke-miterlimit="8" fill="#F8CBAD" fill-rule="evenodd" transform="matrix(1 0 0 -1 385.5 268.916)"/><path d="M0 0 40.3707 11.8007" stroke="#000000" stroke-miterlimit="8" fill="#F8CBAD" fill-rule="evenodd" transform="matrix(1 0 0 -1 385.5 243.301)"/><path d="M0 0 40.3707 32.2028" stroke="#000000" stroke-miterlimit="8" fill="#F8CBAD" fill-rule="evenodd" transform="matrix(1 0 0 -1 385.5 263.703)"/><path d="M385.5 217.5 425.871 231.297" stroke="#000000" stroke-miterlimit="8" fill="#F8CBAD" fill-rule="evenodd"/><path d="M385.5 192.5 425.871 232.015" stroke="#000000" stroke-miterlimit="8" fill="#F8CBAD" fill-rule="evenodd"/><path d="M385.5 166.5 425.871 231.612" stroke="#000000" stroke-miterlimit="8" fill="#F8CBAD" fill-rule="evenodd"/><path d="M0 0 40.3921 12.3113" stroke="#000000" stroke-miterlimit="8" fill="#F8CBAD" fill-rule="evenodd" transform="matrix(1 0 0 -1 443.5 204.811)"/><path d="M0 0 40.4278 39.6088" stroke="#000000" stroke-miterlimit="8" fill="#F8CBAD" fill-rule="evenodd" transform="matrix(1 0 0 -1 443.5 232.109)"/><path d="M0 0 40.4278 67.753" stroke="#000000" stroke-miterlimit="8" fill="#F8CBAD" fill-rule="evenodd" transform="matrix(1 0 0 -1 443.5 260.253)"/><path d="M443.5 176.5 483.619 222.125" stroke="#000000" stroke-miterlimit="8" fill="#F8CBAD" fill-rule="evenodd"/><path d="M443.5 176.5 483.619 222.125" stroke="#000000" stroke-miterlimit="8" fill="#F8CBAD" fill-rule="evenodd"/><path d="M443.5 204.5 483.892 251.787" stroke="#000000" stroke-miterlimit="8" fill="#F8CBAD" fill-rule="evenodd"/><path d="M443.5 176.5 483.677 251.931" stroke="#000000" stroke-miterlimit="8" fill="#F8CBAD" fill-rule="evenodd"/><path d="M443.5 204.5 483.835 221.98" stroke="#000000" stroke-miterlimit="8" fill="#F8CBAD" fill-rule="evenodd"/><path d="M0 0 40.3706 9.81732" stroke="#000000" stroke-miterlimit="8" fill="#F8CBAD" fill-rule="evenodd" transform="matrix(1 0 0 -1 443.5 231.317)"/><path d="M443.5 231.5 483.928 251.489" stroke="#000000" stroke-miterlimit="8" fill="#F8CBAD" fill-rule="evenodd"/><path d="M0 0 40.3706 37.9615" stroke="#000000" stroke-miterlimit="8" fill="#F8CBAD" fill-rule="evenodd" transform="matrix(1 0 0 -1 443.5 259.462)"/><path d="M0 0 40.4278 8.15486" stroke="#000000" stroke-miterlimit="8" fill="#F8CBAD" fill-rule="evenodd" transform="matrix(1 0 0 -1 443.5 259.655)"/><path d="M345.21 490.626 309.881 525.852 309.932 507.902 326.445 491.437 310.026 474.97 310.082 455.397Z" stroke="#000000" stroke-width="1.33333" stroke-miterlimit="8" fill="#2F5597" fill-rule="evenodd" fill-opacity="0.8"/><path d="M371.5 441C371.5 436.306 375.306 432.5 380 432.5 384.694 432.5 388.5 436.306 388.5 441 388.5 445.694 384.694 449.5 380 449.5 375.306 449.5 371.5 445.694 371.5 441Z" stroke="#000000" stroke-width="1.33333" stroke-miterlimit="8" fill="#B4C7E7" fill-rule="evenodd"/><path d="M429.5 450.5C429.5 445.53 433.53 441.5 438.5 441.5 443.471 441.5 447.5 445.53 447.5 450.5 447.5 455.471 443.471 459.5 438.5 459.5 433.53 459.5 429.5 455.471 429.5 450.5Z" stroke="#000000" stroke-width="1.33333" stroke-miterlimit="8" fill="#B4C7E7" fill-rule="evenodd"/><path d="M487.5 466.5C487.5 461.53 491.53 457.5 496.5 457.5 501.471 457.5 505.5 461.53 505.5 466.5 505.5 471.471 501.471 475.5 496.5 475.5 491.53 475.5 487.5 471.471 487.5 466.5Z" stroke="#000000" stroke-width="1.33333" stroke-miterlimit="8" fill="#B4C7E7" fill-rule="evenodd"/><path d="M447.5 450.5 487.677 466.333" stroke="#000000" stroke-miterlimit="8" fill="#B4C7E7" fill-rule="evenodd"/><path d="M388.5 440.5 429.122 450.171" stroke="#000000" stroke-miterlimit="8" fill="#B4C7E7" fill-rule="evenodd"/><path d="M371.5 466.5C371.5 461.53 375.306 457.5 380 457.5 384.694 457.5 388.5 461.53 388.5 466.5 388.5 471.471 384.694 475.5 380 475.5 375.306 475.5 371.5 471.471 371.5 466.5Z" stroke="#000000" stroke-width="1.33333" stroke-miterlimit="8" fill="#B4C7E7" fill-rule="evenodd"/><path d="M0 0 40.6219 15.9271" stroke="#000000" stroke-miterlimit="8" fill="#B4C7E7" fill-rule="evenodd" transform="matrix(1 0 0 -1 388.5 466.427)"/><path d="M371.5 492C371.5 487.306 375.306 483.5 380 483.5 384.694 483.5 388.5 487.306 388.5 492 388.5 496.694 384.694 500.5 380 500.5 375.306 500.5 371.5 496.694 371.5 492Z" stroke="#000000" stroke-width="1.33333" stroke-miterlimit="8" fill="#B4C7E7" fill-rule="evenodd"/><path d="M371.5 517.5C371.5 512.529 375.306 508.5 380 508.5 384.694 508.5 388.5 512.529 388.5 517.5 388.5 522.471 384.694 526.5 380 526.5 375.306 526.5 371.5 522.471 371.5 517.5Z" stroke="#000000" stroke-width="1.33333" stroke-miterlimit="8" fill="#B4C7E7" fill-rule="evenodd"/><path d="M371.5 543C371.5 538.306 375.306 534.5 380 534.5 384.694 534.5 388.5 538.306 388.5 543 388.5 547.694 384.694 551.5 380 551.5 375.306 551.5 371.5 547.694 371.5 543Z" stroke="#000000" stroke-width="1.33333" stroke-miterlimit="8" fill="#B4C7E7" fill-rule="evenodd"/><path d="M429.5 478.5C429.5 473.53 433.53 469.5 438.5 469.5 443.471 469.5 447.5 473.53 447.5 478.5 447.5 483.471 443.471 487.5 438.5 487.5 433.53 487.5 429.5 483.471 429.5 478.5Z" stroke="#000000" stroke-width="1.33333" stroke-miterlimit="8" fill="#B4C7E7" fill-rule="evenodd"/><path d="M429.5 506C429.5 501.306 433.53 497.5 438.5 497.5 443.471 497.5 447.5 501.306 447.5 506 447.5 510.694 443.471 514.5 438.5 514.5 433.53 514.5 429.5 510.694 429.5 506Z" stroke="#000000" stroke-width="1.33333" stroke-miterlimit="8" fill="#B4C7E7" fill-rule="evenodd"/><path d="M429.5 534C429.5 529.306 433.53 525.5 438.5 525.5 443.471 525.5 447.5 529.306 447.5 534 447.5 538.694 443.471 542.5 438.5 542.5 433.53 542.5 429.5 538.694 429.5 534Z" stroke="#000000" stroke-width="1.33333" stroke-miterlimit="8" fill="#B4C7E7" fill-rule="evenodd"/><path d="M487.5 496C487.5 491.306 491.53 487.5 496.5 487.5 501.471 487.5 505.5 491.306 505.5 496 505.5 500.694 501.471 504.5 496.5 504.5 491.53 504.5 487.5 500.694 487.5 496Z" stroke="#000000" stroke-width="1.33333" stroke-miterlimit="8" fill="#B4C7E7" fill-rule="evenodd"/><path d="M487.5 526C487.5 521.306 491.53 517.5 496.5 517.5 501.471 517.5 505.5 521.306 505.5 526 505.5 530.694 501.471 534.5 496.5 534.5 491.53 534.5 487.5 530.694 487.5 526Z" stroke="#000000" stroke-width="1.33333" stroke-miterlimit="8" fill="#B4C7E7" fill-rule="evenodd"/><path d="M0 0 40.6219 41.6449" stroke="#000000" stroke-miterlimit="8" fill="#B4C7E7" fill-rule="evenodd" transform="matrix(1 0 0 -1 388.5 492.145)"/><path d="M0 0 40.622 67.2425" stroke="#000000" stroke-miterlimit="8" fill="#B4C7E7" fill-rule="evenodd" transform="matrix(1 0 0 -1 388.5 517.743)"/><path d="M0 0 40.622 92.56" stroke="#000000" stroke-miterlimit="8" fill="#B4C7E7" fill-rule="evenodd" transform="matrix(1 0 0 -1 388.5 543.06)"/><path d="M0 0 40.3705 10.9685" stroke="#000000" stroke-miterlimit="8" fill="#B4C7E7" fill-rule="evenodd" transform="matrix(1 0 0 -1 388.5 545.469)"/><path d="M388.5 517.5 428.871 533.843" stroke="#000000" stroke-miterlimit="8" fill="#B4C7E7" fill-rule="evenodd"/><path d="M388.5 492.5 428.871 534.441" stroke="#000000" stroke-miterlimit="8" fill="#B4C7E7" fill-rule="evenodd"/><path d="M388.5 466.5 428.871 534.159" stroke="#000000" stroke-miterlimit="8" fill="#B4C7E7" fill-rule="evenodd"/><path d="M388.5 440.5 428.871 533.756" stroke="#000000" stroke-miterlimit="8" fill="#B4C7E7" fill-rule="evenodd"/><path d="M388.5 440.5 428.906 478.315" stroke="#000000" stroke-miterlimit="8" fill="#B4C7E7" fill-rule="evenodd"/><path d="M388.5 466.5 428.906 478.717" stroke="#000000" stroke-miterlimit="8" fill="#B4C7E7" fill-rule="evenodd"/><path d="M0 0 40.4063 13.5008" stroke="#000000" stroke-miterlimit="8" fill="#B4C7E7" fill-rule="evenodd" transform="matrix(1 0 0 -1 388.5 492.001)"/><path d="M0 0 40.4064 39.0984" stroke="#000000" stroke-miterlimit="8" fill="#B4C7E7" fill-rule="evenodd" transform="matrix(1 0 0 -1 388.5 517.598)"/><path d="M0 0 40.4064 64.4159" stroke="#000000" stroke-miterlimit="8" fill="#B4C7E7" fill-rule="evenodd" transform="matrix(1 0 0 -1 388.5 542.916)"/><path d="M0 0 40.3707 11.8007" stroke="#000000" stroke-miterlimit="8" fill="#B4C7E7" fill-rule="evenodd" transform="matrix(1 0 0 -1 388.5 517.301)"/><path d="M0 0 40.3707 32.2028" stroke="#000000" stroke-miterlimit="8" fill="#B4C7E7" fill-rule="evenodd" transform="matrix(1 0 0 -1 388.5 537.703)"/><path d="M388.5 492.5 428.871 506.297" stroke="#000000" stroke-miterlimit="8" fill="#B4C7E7" fill-rule="evenodd"/><path d="M388.5 466.5 428.871 506.015" stroke="#000000" stroke-miterlimit="8" fill="#B4C7E7" fill-rule="evenodd"/><path d="M388.5 440.5 428.871 505.612" stroke="#000000" stroke-miterlimit="8" fill="#B4C7E7" fill-rule="evenodd"/><path d="M0 0 40.3921 12.3113" stroke="#000000" stroke-miterlimit="8" fill="#B4C7E7" fill-rule="evenodd" transform="matrix(1 0 0 -1 447.5 478.811)"/><path d="M0 0 40.4278 39.6088" stroke="#000000" stroke-miterlimit="8" fill="#B4C7E7" fill-rule="evenodd" transform="matrix(1 0 0 -1 447.5 506.109)"/><path d="M0 0 40.4278 67.753" stroke="#000000" stroke-miterlimit="8" fill="#B4C7E7" fill-rule="evenodd" transform="matrix(1 0 0 -1 447.5 534.253)"/><path d="M447.5 450.5 487.619 496.125" stroke="#000000" stroke-miterlimit="8" fill="#B4C7E7" fill-rule="evenodd"/><path d="M447.5 450.5 487.619 496.125" stroke="#000000" stroke-miterlimit="8" fill="#B4C7E7" fill-rule="evenodd"/><path d="M447.5 478.5 487.892 525.787" stroke="#000000" stroke-miterlimit="8" fill="#B4C7E7" fill-rule="evenodd"/><path d="M447.5 450.5 487.677 525.931" stroke="#000000" stroke-miterlimit="8" fill="#B4C7E7" fill-rule="evenodd"/><path d="M447.5 478.5 487.835 495.98" stroke="#000000" stroke-miterlimit="8" fill="#B4C7E7" fill-rule="evenodd"/><path d="M0 0 40.3706 9.81732" stroke="#000000" stroke-miterlimit="8" fill="#B4C7E7" fill-rule="evenodd" transform="matrix(1 0 0 -1 447.5 506.317)"/><path d="M447.5 505.5 487.928 525.489" stroke="#000000" stroke-miterlimit="8" fill="#B4C7E7" fill-rule="evenodd"/><path d="M0 0 40.3706 37.9615" stroke="#000000" stroke-miterlimit="8" fill="#B4C7E7" fill-rule="evenodd" transform="matrix(1 0 0 -1 447.5 534.462)"/><path d="M0 0 40.4278 8.15486" stroke="#000000" stroke-miterlimit="8" fill="#B4C7E7" fill-rule="evenodd" transform="matrix(1 0 0 -1 447.5 533.655)"/><rect x="590.5" y="177.5" width="79" height="20" stroke="#172C51" stroke-width="1.33333" stroke-miterlimit="8" fill="#F4B183"/><rect x="591.5" y="202.5" width="79" height="20" stroke="#172C51" stroke-width="1.33333" stroke-miterlimit="8" fill="#F8CBAD"/><rect x="591.5" y="227.5" width="79" height="20" stroke="#172C51" stroke-width="1.33333" stroke-miterlimit="8" fill="#FBE5D6"/><rect x="591.5" y="253.5" width="79" height="19" stroke="#172C51" stroke-width="1.33333" stroke-miterlimit="8" fill="#C55A11" fill-opacity="0.701961"/><rect x="592.5" y="459.5" width="79" height="19" stroke="#172C51" stroke-width="1.33333" stroke-miterlimit="8" fill="#8FAADC"/><rect x="592.5" y="482.5" width="80" height="20" stroke="#172C51" stroke-width="1.33333" stroke-miterlimit="8" fill="#2F5597" fill-opacity="0.901961"/><rect x="592.5" y="506.5" width="80" height="20" stroke="#172C51" stroke-width="1.33333" stroke-miterlimit="8" fill="#B4C7E7"/><path d="M565.325 221.394 529.997 256.62 530.048 238.669 546.561 222.204 530.142 205.738 530.198 186.165Z" stroke="#000000" stroke-width="1.33333" stroke-miterlimit="8" fill="#CB700B" fill-rule="evenodd" fill-opacity="0.6"/><path d="M569.029 490.626 533.7 525.852 533.752 507.902 550.265 491.437 533.846 474.97 533.902 455.397Z" stroke="#000000" stroke-width="1.33333" stroke-miterlimit="8" fill="#2F5597" fill-rule="evenodd" fill-opacity="0.8"/><text font-family="Arial,Arial_MSFontService,sans-serif" font-weight="400" font-size="19" transform="translate(943.462 471)">fused representation</text><text font-family="Arial,Arial_MSFontService,sans-serif" font-weight="400" font-size="19" transform="translate(554.639 428)">Drug representation</text><text font-family="Arial,Arial_MSFontService,sans-serif" font-weight="400" font-size="19" transform="translate(414.415 136)">MLP</text><text font-family="Arial,Arial_MSFontService,sans-serif" font-weight="400" font-size="19" transform="translate(412.771 419)">MLP</text><path d="M577.5 183C577.5 173.335 585.335 165.5 595 165.5L665 165.5C674.665 165.5 682.5 173.335 682.5 183L682.5 266C682.5 275.665 674.665 283.5 665 283.5L595 283.5C585.335 283.5 577.5 275.665 577.5 266Z" stroke="#000000" stroke-width="1.33333" stroke-linecap="square" stroke-miterlimit="8" stroke-dasharray="4 1.33333" fill="none" fill-rule="evenodd"/><path d="M581.5 458.667C581.5 449.738 588.738 442.5 597.667 442.5L666.333 442.5C675.262 442.5 682.5 449.738 682.5 458.667L682.5 523.333C682.5 532.262 675.262 539.5 666.333 539.5L597.667 539.5C588.738 539.5 581.5 532.262 581.5 523.333Z" stroke="#000000" stroke-width="1.33333" stroke-linecap="square" stroke-miterlimit="8" stroke-dasharray="4 1.33333" fill="none" fill-rule="evenodd"/><path d="M744.5 318.667C744.5 313.052 749.052 308.5 754.667 308.5L835.333 308.5C840.948 308.5 845.5 313.052 845.5 318.667L845.5 359.333C845.5 364.948 840.948 369.5 835.333 369.5L754.667 369.5C749.052 369.5 744.5 364.948 744.5 359.333Z" stroke="#172C51" stroke-width="1.33333" stroke-miterlimit="8" fill="#D0CECE" fill-rule="evenodd"/><path d="M731.5 327.833C731.5 321.574 736.574 316.5 742.833 316.5L822.167 316.5C828.426 316.5 833.5 321.574 833.5 327.833L833.5 373.167C833.5 379.426 828.426 384.5 822.167 384.5L742.833 384.5C736.574 384.5 731.5 379.426 731.5 373.167Z" stroke="#172C51" stroke-width="1.33333" stroke-miterlimit="8" fill="#D0CECE" fill-rule="evenodd"/><text font-family="Arial,Arial_MSFontService,sans-serif" font-weight="400" font-size="16" transform="translate(755.537 347)">Bilinear</text><text font-family="Arial,Arial_MSFontService,sans-serif" font-weight="400" font-size="16" transform="translate(745.284 366)">interaction</text><path d="M682 223 782.973 223 782.973 309.768 780.973 309.768 780.973 224 781.973 225 682 225ZM785.973 308.435 781.973 316.435 777.973 308.435Z" fill="#C55A11"/><path d="M0-1 100.973-1 100.973 100.321 98.973 100.321 98.973 0 99.973 1 0 1ZM103.973 98.988 99.973 106.988 95.973 98.988Z" fill="#2F5597" transform="matrix(1 0 0 -1 682 490.988)"/><text font-family="Arial,Arial_MSFontService,sans-serif" font-weight="400" font-size="19" transform="translate(788.915 298)">Multi</text><text font-family="Arial,Arial_MSFontService,sans-serif" font-weight="400" font-size="19" transform="translate(828.248 298)">-</text><text font-family="Arial,Arial_MSFontService,sans-serif" font-weight="400" font-size="19" transform="translate(834.415 298)">heads</text><path d="M887.5 317.5C887.5 311.977 891.977 307.5 897.5 307.5L969.5 307.5C975.023 307.5 979.5 311.977 979.5 317.5L979.5 357.5C979.5 363.023 975.023 367.5 969.5 367.5L897.5 367.5C891.977 367.5 887.5 363.023 887.5 357.5Z" stroke="#172C51" stroke-width="1.33333" stroke-miterlimit="8" fill="#D0CECE" fill-rule="evenodd"/><path d="M879.5 327.833C879.5 321.574 884.574 316.5 890.833 316.5L960.167 316.5C966.426 316.5 971.5 321.574 971.5 327.833L971.5 373.167C971.5 379.426 966.426 384.5 960.167 384.5L890.833 384.5C884.574 384.5 879.5 379.426 879.5 373.167Z" stroke="#172C51" stroke-width="1.33333" stroke-miterlimit="8" fill="#D0CECE" fill-rule="evenodd"/><text font-family="Arial,Arial_MSFontService,sans-serif" font-weight="400" font-size="16" transform="translate(898.378 347)">Bilinear</text><text font-family="Arial,Arial_MSFontService,sans-serif" font-weight="400" font-size="16" transform="translate(899.298 366)">pooling</text><path d="M682 223 925.817 223 925.817 309.768 923.817 309.768 923.817 224 924.817 225 682 225ZM928.817 308.435 924.817 316.435 920.817 308.435Z" fill="#C55A11"/><path d="M0-1 243.817-1 243.817 100.321 241.817 100.321 241.817 0 242.817 1 0 1ZM246.817 98.988 242.817 106.988 238.817 98.988Z" fill="#2F5597" transform="matrix(1 0 0 -1 682 490.988)"/><rect x="1014.5" y="257.5" width="13.9999" height="186" stroke="#172C51" stroke-width="1.33333" stroke-miterlimit="8" fill="#84908F"/><path d="M1028.02 349 1065.07 349.62 1065.04 351.62 1027.98 351ZM1063.79 346.598 1071.72 350.731 1063.65 354.597Z"/><path d="M1096.5 311.5C1096.5 306.53 1100.53 302.5 1105.5 302.5 1110.47 302.5 1114.5 306.53 1114.5 311.5 1114.5 316.471 1110.47 320.5 1105.5 320.5 1100.53 320.5 1096.5 316.471 1096.5 311.5Z" stroke="#000000" stroke-width="1.33333" stroke-miterlimit="8" fill="#D0CECE" fill-rule="evenodd"/><path d="M1148.5 320.5C1148.5 315.53 1152.31 311.5 1157 311.5 1161.69 311.5 1165.5 315.53 1165.5 320.5 1165.5 325.471 1161.69 329.5 1157 329.5 1152.31 329.5 1148.5 325.471 1148.5 320.5Z" stroke="#000000" stroke-width="1.33333" stroke-miterlimit="8" fill="#D0CECE" fill-rule="evenodd"/><path d="M1165.5 320.5 1188.62 351.527" stroke="#000000" stroke-miterlimit="8" fill="#F8CBAD" fill-rule="evenodd"/><path d="M1096.5 339.5C1096.5 334.53 1100.31 330.5 1105 330.5 1109.69 330.5 1113.5 334.53 1113.5 339.5 1113.5 344.471 1109.69 348.5 1105 348.5 1100.31 348.5 1096.5 344.471 1096.5 339.5Z" stroke="#000000" stroke-width="1.33333" stroke-miterlimit="8" fill="#D0CECE" fill-rule="evenodd"/><path d="M1096.5 367C1096.5 362.306 1100.31 358.5 1105 358.5 1109.69 358.5 1113.5 362.306 1113.5 367 1113.5 371.694 1109.69 375.5 1105 375.5 1100.31 375.5 1096.5 371.694 1096.5 367Z" stroke="#000000" stroke-width="1.33333" stroke-miterlimit="8" fill="#D0CECE" fill-rule="evenodd"/><path d="M1096.5 395C1096.5 390.306 1100.31 386.5 1105 386.5 1109.69 386.5 1113.5 390.306 1113.5 395 1113.5 399.694 1109.69 403.5 1105 403.5 1100.31 403.5 1096.5 399.694 1096.5 395Z" stroke="#000000" stroke-width="1.33333" stroke-miterlimit="8" fill="#D0CECE" fill-rule="evenodd"/><path d="M1147.5 351C1147.5 346.306 1151.53 342.5 1156.5 342.5 1161.47 342.5 1165.5 346.306 1165.5 351 1165.5 355.694 1161.47 359.5 1156.5 359.5 1151.53 359.5 1147.5 355.694 1147.5 351Z" stroke="#000000" stroke-width="1.33333" stroke-miterlimit="8" fill="#D0CECE" fill-rule="evenodd"/><path d="M1148.5 381.5C1148.5 376.53 1152.53 372.5 1157.5 372.5 1162.47 372.5 1166.5 376.53 1166.5 381.5 1166.5 386.471 1162.47 390.5 1157.5 390.5 1152.53 390.5 1148.5 386.471 1148.5 381.5Z" stroke="#000000" stroke-width="1.33333" stroke-miterlimit="8" fill="#D0CECE" fill-rule="evenodd"/><path d="M0 0 34.4169 19.4127" stroke="#000000" stroke-miterlimit="8" fill="#F8CBAD" fill-rule="evenodd" transform="matrix(1 0 0 -1 1113.5 339.913)"/><path d="M0 0 34.4526 46.7102" stroke="#000000" stroke-miterlimit="8" fill="#F8CBAD" fill-rule="evenodd" transform="matrix(1 0 0 -1 1113.5 367.21)"/><path d="M0 0 34.4526 74.8544" stroke="#000000" stroke-miterlimit="8" fill="#F8CBAD" fill-rule="evenodd" transform="matrix(1 0 0 -1 1113.5 395.354)"/><path d="M1114.5 311.5 1148.27 351.193" stroke="#000000" stroke-miterlimit="8" fill="#F8CBAD" fill-rule="evenodd"/><path d="M1114.5 311.5 1148.27 351.193" stroke="#000000" stroke-miterlimit="8" fill="#F8CBAD" fill-rule="evenodd"/><path d="M1113.5 339.5 1148.7 381.57" stroke="#000000" stroke-miterlimit="8" fill="#F8CBAD" fill-rule="evenodd"/><path d="M1114.5 311.5 1149.48 381.714" stroke="#000000" stroke-miterlimit="8" fill="#F8CBAD" fill-rule="evenodd"/><path d="M1113.5 339.5 1147.49 351.049" stroke="#000000" stroke-miterlimit="8" fill="#F8CBAD" fill-rule="evenodd"/><path d="M0 0 34.023 15.7488" stroke="#000000" stroke-miterlimit="8" fill="#F8CBAD" fill-rule="evenodd" transform="matrix(1 0 0 -1 1113.5 367.249)"/><path d="M1113.5 366.5 1148.73 381.272" stroke="#000000" stroke-miterlimit="8" fill="#F8CBAD" fill-rule="evenodd"/><path d="M0 0 34.023 43.8929" stroke="#000000" stroke-miterlimit="8" fill="#F8CBAD" fill-rule="evenodd" transform="matrix(1 0 0 -1 1113.5 395.393)"/><path d="M0 0 35.2331 13.372" stroke="#000000" stroke-miterlimit="8" fill="#F8CBAD" fill-rule="evenodd" transform="matrix(1 0 0 -1 1113.5 394.872)"/><rect x="1189.5" y="336.5" width="58" height="29" stroke="#000000" stroke-linejoin="round" stroke-miterlimit="10" fill="none"/><text font-family="Arial,Arial_MSFontService,sans-serif" font-weight="400" font-size="16" transform="translate(1200.7 357)">IC50</text><path d="M1165.5 351.5 1189.05 351.565" stroke="#000000" stroke-miterlimit="8" fill="#F8CBAD" fill-rule="evenodd"/><path d="M0 0 22.3434 30.4557" stroke="#000000" stroke-miterlimit="8" fill="#F8CBAD" fill-rule="evenodd" transform="matrix(1 0 0 -1 1166.5 381.956)"/><path d="M1072.5 304C1072.5 291.021 1083.02 280.5 1096 280.5L1239 280.5C1251.98 280.5 1262.5 291.021 1262.5 304L1262.5 398C1262.5 410.979 1251.98 421.5 1239 421.5L1096 421.5C1083.02 421.5 1072.5 410.979 1072.5 398Z" stroke="#172C51" stroke-width="1.33333" stroke-miterlimit="8" fill="none" fill-rule="evenodd"/><text font-family="Arial,Arial_MSFontService,sans-serif" font-weight="400" font-size="19" transform="translate(1122.86 269)">Classifier</text><path d="M2.40114e-06-1 37.057-0.999911 37.057 1.00009-2.40114e-06 1ZM35.7237-3.99991 43.7237 0.000104987 35.7237 4.00009Z" transform="matrix(1 0 0 -1 971 350)"/><path d="M833 349 872.139 349 872.139 351 833 351ZM870.805 346 878.805 350 870.805 354Z" fill="#595959"/><text font-family="Arial,Arial_MSFontService,sans-serif" font-weight="700" font-size="24" transform="translate(739.147 182)">Bilinear attention module</text><text font-family="Arial,Arial_MSFontService,sans-serif" font-weight="700" font-size="24" transform="translate(210.389 55)">Cancer feature encoder</text><text font-family="Arial,Arial_MSFontService,sans-serif" font-weight="700" font-size="24" transform="translate(220.569 655)">Drug feature encoder</text><text font-family="Arial,Arial_MSFontService,sans-serif" font-weight="700" font-size="24" transform="translate(1112.11 183)">Decoder</text><text font-family="Arial,Arial_MSFontService,sans-serif" font-weight="400" font-size="19" transform="translate(542.686 149)">Cell line representation</text></g></svg>